<svg width="50.00000000000001" height="32" xmlns="http://www.w3.org/2000/svg">
 <title/>

 <desc/>
 <g>
  <title>background</title>
  <rect fill="none" id="canvas_background" height="34" width="52" y="-1" x="-1"/>
 </g>
 <g>
  <title>Layer 1</title>
  <path fill="#ffffff" id="Rectangle" d="m9,4.220515l32,0c1.38071,0 2.5,1.11929 2.5,2.5c0,1.38071 -1.11929,2.5 -2.5,2.5l-32,0c-1.38071,0 -2.5,-1.11929 -2.5,-2.5c0,-1.38071 1.11929,-2.5 2.5,-2.5z"/>
  <path fill="#ffffff" stroke="null" id="Rectangle" d="m9.454939,23.632069l31.090122,0c1.341451,0 2.428916,1.11859 2.428916,2.498436c0,1.379846 -1.087464,2.498436 -2.428916,2.498436l-31.090122,0c-1.341451,0 -2.428916,-1.11859 -2.428916,-2.498436c0,-1.379846 1.087464,-2.498436 2.428916,-2.498436z"/>
  <path fill="#ffffff" id="Rectangle" d="m9,13.8272l32,0c1.38071,0 2.5,1.11929 2.5,2.5c0,1.38071 -1.11929,2.5 -2.5,2.5l-32,0c-1.38071,0 -2.5,-1.11929 -2.5,-2.5c0,-1.38071 1.11929,-2.5 2.5,-2.5z"/>
 </g>
</svg>