<svg width="472" height="377" xmlns="http://www.w3.org/2000/svg">

 <g>
  <title>background</title>
  <rect fill="none" id="canvas_background" height="379" width="474" y="-1" x="-1"/>
 </g>
 <g>
  <title>Layer 1</title>
  <path stroke="null" fill="#ffffff" id="svg_2" d="m461.930001,282.771999c-9.024,11.339 -30.984,19.404 -30.984,19.404l-163.788,58.775l0,-43.361l120.505,-42.964c13.655,-4.873 15.813,-11.819 4.632,-15.493c-11.1,-3.674 -31.225,-2.635 -44.879,2.316l-80.258,28.351l0,-45.042c18.527,-6.229 37.613,-10.859 60.451,-13.416c32.663,-3.594 72.591,0.48 103.975,12.379c35.297,11.181 39.29,27.711 30.346,39.051l0,0zm-179.201,-73.868l0,-111.003c0,-13.016 -2.396,-24.995 -14.614,-28.429c-9.344,-3.035 -15.171,5.671 -15.171,18.687l0,277.824l-74.908,-23.798l0,-331.168c31.862,5.911 78.26,19.885 103.177,28.27c63.486,21.801 84.968,48.953 84.968,110.043c0,59.493 -36.735,82.095 -83.452,59.574l0,0zm-242.208,104.132c-36.255,-10.22 -42.323,-31.541 -25.793,-43.761c15.252,-11.338 41.285,-19.884 41.285,-19.884l107.408,-38.172l0,43.521l-77.302,27.633c-13.654,4.871 -15.731,11.817 -4.632,15.49c11.101,3.674 31.224,2.637 44.88,-2.314l37.054,-13.495l0,38.969c-41.205,7.427 -80.975,5.829 -122.9,-7.987l0,0z"/>
 </g>
</svg>