<svg width="24" height="24" xmlns="http://www.w3.org/2000/svg">
 <title/>

 <g>
  <title>background</title>
  <rect fill="none" id="canvas_background" height="26" width="26" y="-1" x="-1"/>
 </g>
 <g>
  <title>Layer 1</title>
  <path id="svg_1" fill="#4eba94" d="m19.83333,11.66667c0,1.94223 0.55144,4.0741 -0.49477,5.5447a9.046,9.046 0 0 1 -0.87114,1.04743a16.36313,16.36313 0 0 1 -6.38409,1.44954a21.09344,21.09344 0 0 1 -6.34318,-1.24192a9.05147,9.05147 0 0 1 -0.9033,-1.01682a14.2319,14.2319 0 0 1 -0.67019,-5.49126c0,-2.6655 1.125,-4.875 1.83333,-6.66665a9.01976,9.01976 0 0 1 1.87321,-1.2919c1.46013,0.00021 2.63933,0.00021 4.1268,0.00021a21.55643,21.55643 0 0 1 4.99827,0.51439a9.0382,9.0382 0 0 1 1.00173,0.77732c0.79167,2.24996 1.83333,3.70947 1.83333,6.37496z"/>
  <path id="svg_2" fill="#e3edf0" d="m14.283852,8.049828c2.7901,3.011 5.33295,7.29913 4.90955,9.35388a8.96776,8.96776 0 0 0 -1.27973,-12.24084a15.05516,15.05516 0 0 0 -3.728,2.7879c0.03281,0.03467 0.06534,0.06366 0.09818,0.09906z"/>
  <path id="svg_3" fill="#e3edf0" d="m12.44356,5.96655a9.6584,9.6584 0 0 1 4.44044,-1.51941a8.96422,8.96422 0 0 0 -9.31186,-0.27714c0.493,0.4255 2.12749,0.58549 4.11328,1.79962a0.7225,0.7225 0 0 0 0.75814,-0.00307z"/>
  <path id="svg_4" fill="#e3edf0" d="m9.875,8.08331c0.03455,-0.03668 0.06946,-0.06793 0.10406,-0.10394a21.35438,21.35438 0 0 0 -2.92938,-2.37213a1.39216,1.39216 0 0 0 -1.12683,-0.23187a8.98253,8.98253 0 0 0 -0.86279,12.3548c-0.77338,-1.91047 1.85803,-6.50397 4.81494,-9.64686z"/>
  <path id="svg_5" fill="#e3edf0" d="m18.621,18.08118c0.36438,-1.96417 -3.56665,-5.50244 -6.55811,-8.18536l-0.00018,-0.00018l-0.00019,0.00018c-2.97115,2.62988 -7.10762,6.54955 -6.47365,8.41618a8.979,8.979 0 0 0 13.0321,-0.23083l0.00003,0.00001z"/>
 </g>
</svg>